<mxfile host="app.diagrams.net" modified="2024-05-16T12:55:20.994Z" agent="Mozilla/5.0 (Windows NT 10.0; Win64; x64) AppleWebKit/537.36 (KHTML, like Gecko) Chrome/124.0.0.0 Safari/537.36" etag="2B5-axD3hO6A9ie9n9C5" version="24.4.2" type="device">
  <diagram name="PÃ¡gina-1" id="QiKWM0NmWtagsDWOWPWu">
    <mxGraphModel dx="794" dy="420" grid="1" gridSize="10" guides="1" tooltips="1" connect="1" arrows="1" fold="1" page="1" pageScale="1" pageWidth="827" pageHeight="1169" math="0" shadow="0">
      <root>
        <mxCell id="0" />
        <mxCell id="1" parent="0" />
        <mxCell id="cEn9jzn2ZOUcXxwWSHaK-7" style="edgeStyle=orthogonalEdgeStyle;rounded=0;orthogonalLoop=1;jettySize=auto;html=1;exitX=1;exitY=0.3333333333333333;exitDx=0;exitDy=0;exitPerimeter=0;" edge="1" parent="1" source="cEn9jzn2ZOUcXxwWSHaK-1" target="cEn9jzn2ZOUcXxwWSHaK-4">
          <mxGeometry relative="1" as="geometry" />
        </mxCell>
        <mxCell id="cEn9jzn2ZOUcXxwWSHaK-1" value="medico" style="shape=umlActor;verticalLabelPosition=bottom;verticalAlign=top;html=1;outlineConnect=0;" vertex="1" parent="1">
          <mxGeometry x="60" y="40" width="80" height="110" as="geometry" />
        </mxCell>
        <mxCell id="cEn9jzn2ZOUcXxwWSHaK-4" value="" style="ellipse;whiteSpace=wrap;html=1;" vertex="1" parent="1">
          <mxGeometry x="180" y="30" width="200" height="140" as="geometry" />
        </mxCell>
        <mxCell id="cEn9jzn2ZOUcXxwWSHaK-5" value="o medico digita : email e senha&amp;nbsp;&lt;div&gt;ve prontuarios&lt;/div&gt;&lt;div&gt;edita prontuarios&lt;/div&gt;&lt;div&gt;salva&lt;/div&gt;" style="text;html=1;align=center;verticalAlign=middle;whiteSpace=wrap;rounded=0;" vertex="1" parent="1">
          <mxGeometry x="250" y="90" width="60" height="30" as="geometry" />
        </mxCell>
      </root>
    </mxGraphModel>
  </diagram>
</mxfile>
